<svg width="80" height="85" viewBox="0 0 80 85" xmlns="http://www.w3.org/2000/svg"><title>10s forward</title><path d="M64.24 14.478l-3.27 1.753c8.973 6.56 14.805 17.157 14.805 29.122 0 19.913-16.143 36.056-36.057 36.056-19.913 0-36.056-16.143-36.056-36.056 0-18.24 13.547-33.308 31.127-35.713v4.867s-.01.968.304 1.103c.425.183 1.04-.224 1.04-.224L48.01 9.05s.817-.387.817-.74c0-.423-.817-.798-.817-.798L35.837.898s-.37-.264-.772-.048c-.29.154-.276.823-.276.823V6.24C15.336 8.665.28 25.242.28 45.35c0 21.78 17.656 39.437 39.436 39.437S79.155 67.13 79.155 45.35c0-12.51-5.83-23.65-14.915-30.874" fill="#FFF" fill-rule="evenodd"/></svg>