<svg width="27" height="27" viewBox="0 0 27 27" xmlns="http://www.w3.org/2000/svg"><title>Group 5</title><g fill="#FFF" fill-rule="evenodd"><path d="M13.5 24C19.3 24 24 19.3 24 13.5S19.3 3 13.5 3 3 7.7 3 13.5 7.7 24 13.5 24zm0-3a7.5 7.5 0 1 0 0-15 7.5 7.5 0 0 0 0 15z"/><path d="M11.88 0h3.24l1.08 4.32h-5.4zM27 11.88v3.24l-4.32 1.08v-5.4zM0 11.88v3.24l4.32 1.08v-5.4zM5.512 2.734l-2.25 2.33 2.356 3.78 3.75-3.886zM21.488 2.734l2.25 2.33-2.356 3.78-3.75-3.886zM5.512 24.266l-2.25-2.33 2.356-3.78 3.75 3.886zM21.488 24.266l2.25-2.33-2.356-3.78-3.75 3.886zM11.88 27h3.24l1.08-4.32h-5.4z"/></g></svg>