<svg xmlns="http://www.w3.org/2000/svg" class="freedive-titlePoster__expand-icon" viewBox="0 0 85 85"><defs><radialGradient fx="50%" fy="50%" id="a"><stop stop-color="#FFF" offset="3.947%"/><stop stop-color="#8B8B8B" offset="99.273%"/></radialGradient></defs><g fill="none" fill-rule="evenodd"><circle fill="url(#a)" style="mix-blend-mode:multiply" opacity=".8" cx="42.667" cy="42.667" r="42"/><g fill="#FFF"><path d="M42.5 85C19.028 85 0 65.972 0 42.5S19.028 0 42.5 0 85 19.028 85 42.5 65.972 85 42.5 85zm.148-2.965c21.753 0 39.387-17.634 39.387-39.387 0-21.752-17.634-39.386-39.387-39.386-21.752 0-39.386 17.634-39.386 39.386 0 21.753 17.634 39.387 39.386 39.387z"/><path d="M27.1 33.763L43 50.145l15.9-16.382 4.482 4.619-20.382 21-20.382-21 4.483-4.619z" fill-rule="nonzero"/></g></g></svg>