<svg width="80" height="85" viewBox="0 0 80 85" xmlns="http://www.w3.org/2000/svg"><title>10s back</title><path d="M15.197 14.478l3.268 1.753C9.495 22.79 3.662 33.388 3.662 45.353c0 19.913 16.143 36.056 36.056 36.056 19.914 0 36.057-16.143 36.057-36.056 0-18.24-13.547-33.308-31.127-35.713v4.867s.008.968-.305 1.103c-.425.183-1.04-.224-1.04-.224L31.428 9.05s-.818-.387-.818-.74c0-.423.816-.798.816-.798L43.6.898s.368-.264.772-.048c.29.154.276.823.276.823V6.24c19.45 2.426 34.507 19.003 34.507 39.112 0 21.78-17.656 39.437-39.437 39.437C17.938 84.79.282 67.13.282 45.35c0-12.51 5.83-23.65 14.915-30.874" fill="#FFF" fill-rule="evenodd"/></svg>